<?xml version="1.0" encoding="utf-8"?>
<!-- Generator: Adobe Illustrator 24.2.3, SVG Export Plug-In . SVG Version: 6.00 Build 0)  -->
<svg version="1.1" id="Layer_1" xmlns="http://www.w3.org/2000/svg" xmlns:xlink="http://www.w3.org/1999/xlink" x="0px" y="0px"
	 viewBox="0 0 452.2841 340.0587" enable-background="new 0 0 452.2841 340.0587" xml:space="preserve">
<g>
	<path d="M127.381,141.3017c-1.895-2.5498-5.4961-3.0791-8.0449-1.1855l-3.0186,2.2434h11.6846
		C127.8358,141.9931,127.6309,141.6379,127.381,141.3017z"/>
	<path d="M52.2881,192.8599l-3.9426,33.8132l41.8056-75.0344c-2.8751-2.5065-6.5068-4.2051-10.5816-4.6802
		c-10.7395-1.2522-20.4608,6.4388-21.713,17.1783c-0.7681,6.5878,1.8385,12.7828,6.4401,16.8845l-9.6943,7.2048
		C53.0798,189.3576,52.2839,191.0984,52.2881,192.8599z"/>
	<path d="M118.8156,191.975l-1.7093,1.906h11.3781c-0.3113-0.8713-0.812-1.6873-1.5491-2.3484
		C124.5715,189.4135,120.9362,189.6108,118.8156,191.975z"/>
	<path d="M1.0673,319.478L0,321.3936l8.7363,4.8672l8.6572-15.5391h8.4298l-1.477,4.0121
		c-1.8125,4.9238,0.7095,10.3848,5.6333,12.1973c1.0825,0.3984,2.1904,0.5879,3.2808,0.5879c3.8672,0,7.502-2.3799,8.916-6.2207
		l3.8936-10.5766h36.8113h4.4283l-4.838,8.6826l-1.0673,1.9155l8.7363,4.8672l102.9943-184.8585l117.3887,165.9383h-0.2395
		c-3.6666,0-6.6666,3-6.6666,6.6666v0.0001c0,3.6666,3,6.6666,6.6666,6.6666h135.3334c3.6666,0,6.6666-3,6.6666-6.6666v-0.0001
		c0-3.6666-3-6.6666-6.6666-6.6666h-9.5939l-43.6135-61.6512c-0.6147,0.6624-1.278,1.2872-2.0099,1.8482
		c-2.8174,2.1597-6.1807,3.3013-9.7256,3.3013c-5.0225,0-9.6533-2.2847-12.7061-6.2681l-16.1982-21.1338l-34.418-5.5356
		c-1.8018-0.2896-3.5146-0.8735-5.1035-1.7393c-7.8086-2.6362-13.6621-17.4053-13.7148-17.5659l-13.4199-39.5366l-43.6123-32.1914
		c-5.5449-4.0933-6.7256-11.9346-2.6328-17.48c2.3467-3.1792,6.1074-5.0771,10.0615-5.0771c2.6865,0,5.252,0.8447,7.418,2.4434
		l24.4639,18.0572c-0.1789-0.4592-0.3619-0.9163-0.5167-1.3892c-2.2021-6.7275-1.6514-13.9097,1.5488-20.2231
		c1.2968-2.5585,2.9713-4.8444,4.9457-6.8119l-10.1728-14.3801h-1.1334v-8.2667h-3.2V37c0-20.4019-16.5977-37-37-37h-2.667
		c-10.9115,0-20.7316,4.7504-27.5096,12.2883c3.1251,4.4327,5.4313,9.4774,6.7043,14.9186C215.497,19.4094,223.4356,14,232.6172,14
		h2.667c12.6826,0,23,10.3179,23,23v36.6667h-45.3337h-6V37.0004c0-20.4023-16.5977-37-37-37h-2.666c-20.4023,0-37,16.5977-37,37
		v33.8178v2.8485h-16.1337v11.3334h13.1281h4.4281L1.0673,319.478z M92.8809,300.7217h-69.915l2.1161-3.7982l17.1569-30.7939
		l-11.3361,30.7939h20.2466l13.887-37.7233h19.9835l-8.6706,28.7719c-0.9742,3.232-0.1367,6.5726,1.9172,8.9514h12.3024
		l6.3743-11.4407l7.9207-26.2826h6.7227h4.4281L92.8809,300.7217z M121.5859,249.2002h-69.915l2.1161-3.7982h55.2352l0.0507-0.1682
		c0.9248-3.0684,0.2402-6.3965-1.8213-8.8516c-2.0615-2.4541-5.2192-3.7012-8.4033-3.3223l-7.4937,0.8968l3.064-26.2776h1.0019
		l10.7374,7.8701c1.0205,0.748,2.2124,1.1123,3.397,1.1123c1.5835,0,3.1538-0.6523,4.2832-1.9111l6.3412-7.0712h20.1123h4.4281
		L121.5859,249.2002z M150.291,197.6792H80.376l2.1161-3.7982h13.5566l-2.2727-1.6658c-0.6803-0.4987-1.434-0.8207-2.2084-0.9844
		c-0.3148-0.0908-0.6394-0.1622-0.9766-0.2015l-6.1131-0.7128l4.6344-8.318c3.33-2.5226,5.8401-6.0994,7.0172-10.3072
		l20.9013-15.5338h51.9658h4.4281L150.291,197.6792z M339.0236,307.2668h-13L168.7869,85.0001h13L339.0236,307.2668z
		 M144.2845,70.8182V37.0004c0-12.6826,10.3174-23,23-23h2.666c12.6826,0,23,10.3174,23,23v36.6663h-6h-42.666V70.8182z
		 M139.9023,90.8386l3.2529-5.8384h10.1318l4.1303,5.8384l2.6869,3.7982h-22.318L139.9023,90.8386z M167.1783,104.6367
		l17.0752,24.1371l2.4772,3.5016l-7.7346,13.8822h-69.915l2.1161-3.7982l21.0176-37.7228H167.1783z"/>
	<path d="M297.4676,144.4885l-44.6816-32.9803c-2.8896-2.1323-6.958-1.519-9.0898,1.3691c-2.1318,2.8887-1.5186,6.958,1.3691,9.0898
		l45.1265,33.3086l14.0444,41.3806c0.9785,2.9902,7.0156,13.6504,10.3188,13.8311c1.1089,0.7007,2.3735,1.1948,3.7505,1.4163
		l36.7744,5.9146l17.6514,23.0293c1.9688,2.5693,4.9395,3.9175,7.9434,3.9175c2.123,0,4.2617-0.6729,6.0762-2.0635
		c4.3838-3.3599,5.2139-9.6367,1.8535-14.02L368.533,202.494c-1.5537-2.0283-3.8262-3.3843-6.3486-3.79l-8.1748-1.3147
		l11.8369-4.449l38.6055,15.793c1.2393,0.5073,2.5215,0.7476,3.7822,0.7471c3.9404,0,7.6758-2.3442,9.2598-6.2163
		c2.0908-5.1113-0.3574-10.9507-5.4697-13.0415l-42.2373-17.2788c-2.334-0.9551-4.9443-0.9922-7.3047-0.1055l-16.1064,6.0537
		l-12.1147-35.6953l38.3589-38.4165c2.5361-2.5405,2.5332-6.6558-0.0068-9.1924s-6.6563-2.5347-9.1924,0.0068l-40.5068,40.568
		L297.4676,144.4885z"/>
	<path d="M311.8563,134.5909c10.7607-3.5208,16.6294-15.098,13.1089-25.8585c-3.521-10.7604-15.0981-16.6293-25.8589-13.1085
		c-10.7603,3.5208-16.6294,15.0981-13.1084,25.8586C289.5189,132.2429,301.096,138.1118,311.8563,134.5909z M320.0565,116.0307
		c-6.0706,19.6374-21.566,6.4141-21.566,6.4141C308.5361,123.9642,320.0565,116.0307,320.0565,116.0307z"/>
	<path d="M186.7488,325.9814l-12.3951,14.0772h75.9645c-5.8523-6.2744-30.0601-33.4784-29.24-53.2814
		c1.0267,0.2555,2.0224,0.537,2.9778,0.8356c4.7085,1.4717,8.4332,3.3228,9.9684,4.1391l15.5088,18.5132
		c1.0879,1.2988,2.6475,1.9683,4.2188,1.9683c1.2461,0,2.499-0.4214,3.5293-1.2837c2.3281-1.9507,2.6348-5.4194,0.6836-7.748
		l-16.167-19.2998c-0.4014-0.4795-0.8818-0.8872-1.4199-1.2051c-0.9219-0.5439-22.7158-13.1904-41.4912-5.8647
		c-5.1807,1.6733-22.6973,10.8467-30.0508,14.7466l-21.4609-10.731c-2.7168-1.3574-6.0205-0.2573-7.3789,2.46
		c-1.3584,2.7168-0.2578,6.0205,2.459,7.3789l24,12c1.5967,0.7974,3.4795,0.7725,5.0527-0.0688
		c3.8985-2.0839,8.5581-4.5291,13.0773-6.8506c1.1056-0.5679,2.2016-1.1279,3.277-1.6738
		C185.2135,311.4164,186.7488,325.9814,186.7488,325.9814z"/>
	<path d="M245.5416,249.5428c-2.5259,3.7756-8.0225,6.7535-21.2969-3.4966c-6.2072-4.793-11.4656-6.5432-15.9048-6.554
		c0.4803,0.6667,0.9387,1.3541,1.3521,2.0798c2.0367,3.5745,3.0338,7.5383,2.9985,11.5455
		c6.2723,4.0507,13.4468,9.6119,20.6374,8.6725C248.4648,259.8126,248.0675,245.7672,245.5416,249.5428z"/>
	<path d="M179.4781,234.9775c-9.9279,5.6568-13.3891,18.2885-7.7327,28.2156c5.6564,9.9271,18.2878,13.3895,28.2157,7.7327
		c9.9264-5.6559,13.389-18.2886,7.7327-28.2157C202.0374,232.783,189.4045,229.3215,179.4781,234.9775z M176.1331,259.1153
		c9.0193,4.6771,22.4824,0.8817,22.4824,0.8817C186.5376,276.6284,176.1331,259.1153,176.1331,259.1153z"/>
</g>
</svg>
