<?xml version="1.0" encoding="UTF-8" standalone="no"?> <svg xmlns="http://www.w3.org/2000/svg" width="700.001" height="700.001" viewBox="0 0 700.001 700.001">
  <g id="Layer_x0020_1" transform="translate(0 0)">
    <rect id="Rectangle_5" data-name="Rectangle 5" width="700.001" height="700.001" rx="61.541" transform="translate(-0.001 -0.001)" fill="#f4e9b7"/>
    <path id="Path_31" data-name="Path 31" d="M128.137,397.876a6,6,0,1,0,0,12h44.4a6,6,0,1,0,0-12Z" fill="#629caa"/>
    <path id="Path_32" data-name="Path 32" d="M128.137,439.088a6,6,0,1,0,0,12h44.4a6,6,0,1,0,0-12Z" fill="#629caa"/>
    <path id="Path_33" data-name="Path 33" d="M128.137,480.3a6,6,0,1,0,0,12h44.4a6,6,0,1,0,0-12Z" fill="#629caa"/>
    <path id="Path_34" data-name="Path 34" d="M128.137,521.514a6,6,0,1,0,0,12h44.4a6,6,0,1,0,0-12Z" fill="#629caa"/>
    <path id="Path_35" data-name="Path 35" d="M128.137,562.727a6,6,0,1,0,0,12h44.4a6,6,0,1,0,0-12Z" fill="#629caa"/>
    <path id="Path_36" data-name="Path 36" d="M167.177,595.1a6,6,0,0,0,12,0V368.107a6,6,0,0,0-12,0Z" fill="#aeb7c0"/>
    <path id="Path_37" data-name="Path 37" d="M122.137,600a6,6,0,0,0,12,0V372.6a6,6,0,0,0-12,0ZM334.243,372.6a6,6,0,0,0-12,0V600a6,6,0,0,0,12,0Z" fill="#aeb7c0"/>
    <path id="Path_38" data-name="Path 38" d="M328.194,330.566a6,6,0,0,0-.736,11.955v24.122a5.976,5.976,0,0,0,.736,11.907h39.432l2.627,0c8.459-.026,7.291-1.194,11.547,5.5,1.159,1.824,2.582,4.062,4.684,7.146L508.446,570.036c1.748,2.563,3.093,4.727,4.178,6.471,6.315,10.157,6.4,10.292,21.41,10.292h58.318c7.023,0,11.745-6.437,11.745-13.008v-24.6c0-6.565-4.719-13.008-11.745-13.008H549.658c-3.056,0-6.278.11-8.922.2-4.042.137-6.123.208-6.771-.164-.915-.526-2.353-2.878-5.306-7.714-1.148-1.881-2.5-4.1-4.3-6.945l-7.234-11.448c-27.794-43.991-77.955-123.39-102.49-158.981-1.6-2.328-3.24-4.781-4.635-6.875-4.156-6.237-6.273-9.416-9.763-11.536-5.21-3.164-13.807-2.158-20.109-2.158H328.194Z" fill="#56bcfc"/>
    <path id="Path_39" data-name="Path 39" d="M334.243,217.975a6,6,0,0,0-6-6H128.137a6,6,0,0,0-6,6V372.6a6,6,0,0,0,6,6H328.243a6,6,0,0,0,6-6Z" fill="#ffcf11"/>
    <path id="Path_40" data-name="Path 40" d="M105.98,213.722,223.946,95.757a6,6,0,0,1,8.485,0L350.4,213.722a6,6,0,0,1-4.243,10.241H110.224a6,6,0,0,1-4.244-10.243Z" fill="#f15386"/>
    <path id="Path_41" data-name="Path 41" d="M228.19,122.517a36.465,36.465,0,1,1-36.465,36.465,36.484,36.484,0,0,1,36.465-36.465Z" fill="#f15386"/>
    <path id="Path_42" data-name="Path 42" d="M228.19,122.517a36.465,36.465,0,1,1-36.465,36.465,36.484,36.484,0,0,1,36.465-36.465Z" fill="#faa800" fill-rule="evenodd"/>
    <path id="Path_43" data-name="Path 43" d="M228.19,132.516a26.466,26.466,0,1,1-26.466,26.466A26.48,26.48,0,0,1,228.19,132.516Z" fill="#fffbea"/>
  </g>
</svg>
